<svg id="Capa_1" enable-background="new 0 0 511 511" height="512" viewBox="0 0 511 511" width="512" xmlns="http://www.w3.org/2000/svg"><g><g id="Flat_34_"><path d="m7.5 473.5h496v30h-496z" fill="#cbdcfb"/><path d="m490.5 473.5h-470v-50l178.668-22.809c29.885-3.815 56.332 19.47 56.332 49.598v23.211-23.211c0-30.127 26.447-53.413 56.332-49.598l178.668 22.809z" fill="#fff"/><path d="m255.5 450.289c0-2.308-.173-4.57-.473-6.789h-234.527v30h470v-30h-234.527c-.3 2.219-.473 4.48-.473 6.789z" fill="#e4e8ed"/><path d="m495.5 127.5s-107.452 120-240 120-240-120-240-120 107.452-120 240-120 240 120 240 120z" fill="#fff"/><path d="m480.635 112.5c-33.865 32.188-121.882 105-225.135 105s-191.269-72.812-225.135-105c-9.608 9.132-14.865 15-14.865 15s107.452 120 240 120 240-120 240-120-5.257-5.868-14.865-15z" fill="#e4e8ed"/><circle cx="255.5" cy="127.5" fill="#616161" r="90"/><path d="m255.5 187.5c-44.594 0-81.606-32.435-88.749-75-.819 4.879-1.251 9.889-1.251 15 0 49.706 40.294 90 90 90s90-40.294 90-90c0-5.111-.433-10.121-1.251-15-7.143 42.565-44.155 75-88.749 75z" fill="#424242"/><circle cx="255.5" cy="127.5" fill="#e4e8ed" r="50"/><path d="m255.5 147.5c-22.345 0-41.311-14.736-47.698-35-1.493 4.738-2.302 9.776-2.302 15 0 27.57 22.43 50 50 50s50-22.43 50-50c0-5.224-.809-10.262-2.302-15-6.387 20.264-25.353 35-47.698 35z" fill="#c8d1da"/></g><g id="Outline_34_"><path d="m15 481h311.5v-15h-63.5v-15.711c0-23.439 19.023-42.509 42.407-42.509 1.817 0 3.658.118 5.475.351l23.413 2.989 1.9-14.879-23.409-2.989c-2.443-.312-4.926-.472-7.379-.472-21.351 0-40.018 11.739-49.907 29.11-9.89-17.371-28.557-29.109-49.908-29.109-2.45 0-4.932.158-7.374.471l-185.218 23.644v49.104h-13v45h58.5v-15h-43.5zm13-50.896 172.119-21.973c1.814-.232 3.656-.35 5.473-.35 23.384 0 42.408 19.069 42.408 42.508v15.711h-220z"/><path d="m498 416.896-146.926-18.755-1.9 14.879 133.826 17.084v35.896h-141.5v15h154.5v15h-422.5v15h437.5v-45h-13z"/><path d="m255.5 15c66.409 0 126.457 31.79 165.137 58.459 6.093 4.201 11.86 8.411 17.275 12.541h-21.412v15h40.054c6.48 5.494 12.125 10.582 16.838 15h-38.892v15h47.227c-16.704 16.653-57.629 54.054-112.199 80.527l6.547 13.496c65.494-31.772 112.174-78.876 122.778-90.108l6.779-7.343-4.545-5.075c-1.121-1.252-27.958-31.01-71.618-61.168-40.505-27.978-103.566-61.329-173.969-61.329-32.968 0-67.205 7.241-101.762 21.523l5.729 13.863c32.731-13.527 65.041-20.386 96.033-20.386z"/><path d="m81.531 193.671c29.076 20.084 69.775 42.934 116.469 54.231v29.632l-30 32v30.966h15v-25.034l30-32v-32.403c11.388 2.068 23.077 3.403 35 3.8v27.529l-30 30.001v21.107h15v-14.894l15-15v43.894h15v-58.893l16 16v16.893h15v-23.106l-31-31.001v-12.53c11.537-.38 23.217-1.644 35-3.765v32.367l30 32v25.035h15v-30.966l-30-32v-29.579c15.626-3.757 31.405-9 47.251-15.731l-5.865-13.807c-33.713 14.321-66.983 21.583-98.886 21.583-66.409 0-126.457-31.79-165.137-58.459-6.093-4.201-11.86-8.411-17.274-12.541h21.411v-15h-40.053c-6.48-5.494-12.125-10.582-16.838-15h38.891v-15h-47.238c17.142-17.109 59.837-56.113 116.779-82.702l-6.346-13.592c-67.939 31.726-116.458 80.625-127.47 92.294l-6.725 7.575 4.413 4.928c1.121 1.252 27.958 31.01 71.618 61.168z"/><path d="m158 127.5c0 53.762 43.738 97.5 97.5 97.5s97.5-43.738 97.5-97.5-43.738-97.5-97.5-97.5-97.5 43.738-97.5 97.5zm180 0c0 45.49-37.01 82.5-82.5 82.5s-82.5-37.01-82.5-82.5 37.01-82.5 82.5-82.5 82.5 37.01 82.5 82.5z"/><path d="m198 127.5c0 31.706 25.794 57.5 57.5 57.5s57.5-25.794 57.5-57.5-25.794-57.5-57.5-57.5-57.5 25.794-57.5 57.5zm100 0c0 23.435-19.065 42.5-42.5 42.5s-42.5-19.065-42.5-42.5 19.065-42.5 42.5-42.5 42.5 19.065 42.5 42.5z"/><path d="m248 362.5h15v15h-15z"/><path d="m218 348.5h15v15h-15z"/><path d="m168 355.5h15v15h-15z"/><path d="m328 355.5h15v15h-15z"/><path d="m279 336.5h15v15h-15z"/><path d="m386.5 86h15v15h-15z"/><path d="m109.5 154h15v15h-15z"/></g></g></svg>